<svg width="16" height="16" viewBox="0 0 16 16" fill="none" xmlns="http://www.w3.org/2000/svg">
<rect width="16" height="16" rx="2" fill="#111111"/>
<path d="M13.176 5.55813L4.90678 10.0292C4.71357 10.1337 4.78741 10.4269 5.00705 10.4274L10.7006 10.4408C10.7766 10.441 10.8469 10.4004 10.8848 10.3345L13.4605 5.85001C13.5668 5.66497 13.3637 5.45663 13.176 5.55813Z" fill="white" stroke="black" stroke-width="0.1" stroke-linecap="round"/>
<path d="M4.34045 9.64781L2.73187 6.81305C2.6334 6.63953 2.80748 6.43851 2.99329 6.51117L6.97998 8.07017C7.14828 8.13598 7.16222 8.36875 7.00298 8.45418L4.62487 9.72994C4.52348 9.78433 4.39723 9.74787 4.34045 9.64781Z" fill="white"/>
<path d="M7.70004 7.99173L6.01701 7.35216C5.87139 7.29683 5.83328 7.10853 5.94592 7.00092L7.47657 5.53869C7.54973 5.46879 7.66211 5.46039 7.74486 5.51863L9.51586 6.76507C9.64524 6.85612 9.63279 7.05172 9.49291 7.12564L7.87429 7.981C7.82045 8.00945 7.75697 8.01336 7.70004 7.99173Z" fill="white"/>
<path d="M4.34045 9.64781L2.73187 6.81305C2.6334 6.63953 2.80748 6.43851 2.99329 6.51117L6.97998 8.07017C7.14828 8.13598 7.16222 8.36875 7.00298 8.45418L4.62487 9.72994C4.52348 9.78433 4.39723 9.74787 4.34045 9.64781Z" stroke="black" stroke-width="0.1"/>
<path d="M7.70004 7.99173L6.01701 7.35216C5.87139 7.29683 5.83328 7.10853 5.94592 7.00092L7.47657 5.53869C7.54973 5.46879 7.66211 5.46039 7.74486 5.51863L9.51586 6.76507C9.64524 6.85612 9.63279 7.05172 9.49291 7.12564L7.87429 7.981C7.82045 8.00945 7.75697 8.01336 7.70004 7.99173Z" stroke="black" stroke-width="0.1"/>
</svg>
