<svg width="32" height="32" viewBox="0 0 32 32" fill="none" xmlns="http://www.w3.org/2000/svg">
<rect width="32" height="32" rx="4" fill="#111111"/>
<path d="M26.3521 11.1158L9.81369 20.0579C9.42727 20.2668 9.57494 20.8533 10.0142 20.8544L21.4013 20.8812C21.5534 20.8815 21.694 20.8004 21.7697 20.6685L26.9211 11.6995C27.1336 11.3295 26.7275 10.9128 26.3521 11.1158Z" fill="white" stroke="black" stroke-width="0.2" stroke-linecap="round"/>
<path d="M8.68077 19.2956L5.46361 13.6261C5.26668 13.2791 5.61484 12.877 5.98646 13.0223L13.9598 16.1403C14.2964 16.272 14.3243 16.7375 14.0058 16.9084L9.24961 19.4599C9.04684 19.5687 8.79433 19.4957 8.68077 19.2956Z" fill="white"/>
<path d="M15.4 15.9835L12.0339 14.7043C11.7427 14.5937 11.6664 14.2171 11.8917 14.0018L14.953 11.0774C15.0993 10.9376 15.3241 10.9208 15.4896 11.0373L19.0316 13.5301C19.2904 13.7122 19.2655 14.1034 18.9857 14.2513L15.7485 15.962C15.6408 16.0189 15.5138 16.0267 15.4 15.9835Z" fill="white"/>
<path d="M8.68077 19.2956L5.46361 13.6261C5.26668 13.2791 5.61484 12.877 5.98646 13.0223L13.9598 16.1403C14.2964 16.272 14.3243 16.7375 14.0058 16.9084L9.24961 19.4599C9.04684 19.5687 8.79433 19.4957 8.68077 19.2956Z" stroke="black" stroke-width="0.2"/>
<path d="M15.4 15.9835L12.0339 14.7043C11.7427 14.5937 11.6664 14.2171 11.8917 14.0018L14.953 11.0774C15.0993 10.9376 15.3241 10.9208 15.4896 11.0373L19.0316 13.5301C19.2904 13.7122 19.2655 14.1034 18.9857 14.2513L15.7485 15.962C15.6408 16.0189 15.5138 16.0267 15.4 15.9835Z" stroke="black" stroke-width="0.2"/>
</svg>
